{
  "source": "C:\\Users\\Peter\\Desktop\\stuff\\MIUN\\quantitative_research\\video_compression\\videos\\BVI-HD\\BVI-HD_CDVL_videos\\ORIG\\Hamster_1920x1080_60fps.mp4",
  "output": "C:\\Users\\Peter\\Desktop\\stuff\\MIUN\\quantitative_research\\video_compression\\compressed_videos\\BVI-HD\\vp9\\4\\Hamster_1920x1080_60fps_vp9.webm",
  "codec": "vp9",
  "ok": "Input #0, mov,mp4,m4a,3gp,3g2,mj2, from 'C:\\Users\\Peter\\Desktop\\stuff\\MIUN\\quantitative_research\\video_compression\\videos\\BVI-HD\\BVI-HD_CDVL_videos\\ORIG\\Hamster_1920x1080_60fps.mp4':\n  Metadata:\n    major_brand     : isom\n    minor_version   : 512\n    compatible_brands: isomiso2avc1mp41\n    encoder         : Lavf54.28.101\n  Duration: 00:00:05.00, start: 0.000000, bitrate: 208485 kb/s\n  Stream #0:0[0x1](und): Video: h264 (High 4:4:4 Predictive) (avc1 / 0x31637661), yuv420p(progressive), 1920x1080, 208481 kb/s, 60 fps, 60 tbr, 60 tbn (default)\n    Metadata:\n      handler_name    : VideoHandler\n      vendor_id       : [0][0][0][0]\n[out#0/webm @ 0000025e64979880] Codec AVOption b:a (set bitrate (in bits/s)) has not been used for any stream. The most likely reason is either wrong type (e.g. a video option with no video streams) or that it is a private option of some decoder which was not actually used for any stream.\nStream mapping:\n  Stream #0:0 -> #0:0 (h264 (native) -> vp9 (libvpx-vp9))\nPress [q] to stop, [?] for help\n[libvpx-vp9 @ 0000025e6498cbc0] v1.15.2-100-g40561f514\nOutput #0, webm, to 'C:\\Users\\Peter\\Desktop\\stuff\\MIUN\\quantitative_research\\video_compression\\compressed_videos\\BVI-HD\\vp9\\4\\Hamster_1920x1080_60fps_vp9.webm':\n  Metadata:\n    major_brand     : isom\n    minor_version   : 512\n    compatible_brands: isomiso2avc1mp41\n    encoder         : Lavf62.3.100\n  Stream #0:0(und): Video: vp9, yuv420p(tv, progressive), 1920x1080, q=2-31, 4000 kb/s, 60 fps, 1k tbn (default)\n    Metadata:\n      encoder         : Lavc62.11.100 libvpx-vp9\n      handler_name    : VideoHandler\n      vendor_id       : [0][0][0][0]\n    Side data:\n      cpb: bitrate max/min/avg: 0/0/0 buffer size: 4000000 vbv_delay: N/A\nframe=    0 fps=0.0 q=0.0 size=       0KiB time=N/A bitrate=N/A speed=N/A elapsed=0:00:00.51    \nframe=    8 fps=7.5 q=38.0 size=       1KiB time=00:00:00.13 bitrate=  38.0kbits/s speed=0.126x elapsed=0:00:01.06    \nframe=   13 fps=8.2 q=34.0 size=       1KiB time=00:00:00.20 bitrate=  25.3kbits/s speed=0.127x elapsed=0:00:01.57    \nframe=   18 fps=8.3 q=40.0 size=       1KiB time=00:00:00.28 bitrate=  17.9kbits/s speed=0.131x elapsed=0:00:02.15    \nframe=   23 fps=8.2 q=39.0 size=       1KiB time=00:00:00.38 bitrate=  13.2kbits/s speed=0.137x elapsed=0:00:02.79    \nframe=   28 fps=8.3 q=40.0 size=       1KiB time=00:00:00.45 bitrate=  11.3kbits/s speed=0.133x elapsed=0:00:03.38    \nframe=   33 fps=8.2 q=42.0 size=       1KiB time=00:00:00.53 bitrate=   9.5kbits/s speed=0.132x elapsed=0:00:04.03    \nframe=   36 fps=7.7 q=42.0 size=       1KiB time=00:00:00.60 bitrate=   8.4kbits/s speed=0.129x elapsed=0:00:04.66    \nframe=   42 fps=8.1 q=39.0 size=       1KiB time=00:00:00.68 bitrate=   7.4kbits/s speed=0.132x elapsed=0:00:05.17    \nframe=   47 fps=8.1 q=39.0 size=       1KiB time=00:00:00.78 bitrate=   6.5kbits/s speed=0.135x elapsed=0:00:05.79    \nframe=   51 fps=8.0 q=37.0 size=       1KiB time=00:00:00.85 bitrate=   6.0kbits/s speed=0.133x elapsed=0:00:06.37    \nframe=   55 fps=7.9 q=37.0 size=       1KiB time=00:00:00.91 bitrate=   5.5kbits/s speed=0.132x elapsed=0:00:06.95    \nframe=   59 fps=7.8 q=37.0 size=       1KiB time=00:00:00.98 bitrate=   5.1kbits/s speed=0.13x elapsed=0:00:07.58    \nframe=   63 fps=7.8 q=35.0 size=       1KiB time=00:00:01.05 bitrate=   4.8kbits/s speed=0.129x elapsed=0:00:08.12    \nframe=   68 fps=7.8 q=38.0 size=       1KiB time=00:00:01.13 bitrate=   4.5kbits/s speed=0.131x elapsed=0:00:08.66    \nframe=   72 fps=7.8 q=39.0 size=       1KiB time=00:00:01.20 bitrate=   4.2kbits/s speed=0.13x elapsed=0:00:09.22    \nframe=   77 fps=7.9 q=41.0 size=       1KiB time=00:00:01.28 bitrate=   3.9kbits/s speed=0.131x elapsed=0:00:09.78    \nframe=   81 fps=7.8 q=43.0 size=       1KiB time=00:00:01.35 bitrate=   3.8kbits/s speed=0.13x elapsed=0:00:10.40    \nframe=   85 fps=7.7 q=29.0 size=       1KiB time=00:00:01.40 bitrate=   3.6kbits/s speed=0.127x elapsed=0:00:10.99    \nframe=   88 fps=7.6 q=43.0 size=       1KiB time=00:00:01.46 bitrate=   3.5kbits/s speed=0.127x elapsed=0:00:11.57    \nframe=   92 fps=7.6 q=43.0 size=       1KiB time=00:00:01.53 bitrate=   3.3kbits/s speed=0.126x elapsed=0:00:12.13    \nframe=   96 fps=7.6 q=44.0 size=       1KiB time=00:00:01.60 bitrate=   3.2kbits/s speed=0.126x elapsed=0:00:12.67    \nframe=  101 fps=7.6 q=46.0 size=       1KiB time=00:00:01.68 bitrate=   3.0kbits/s speed=0.127x elapsed=0:00:13.23    \nframe=  105 fps=7.6 q=46.0 size=       1KiB time=00:00:01.75 bitrate=   2.9kbits/s speed=0.127x elapsed=0:00:13.80    \nframe=  108 fps=7.5 q=46.0 size=       1KiB time=00:00:01.80 bitrate=   2.8kbits/s speed=0.126x elapsed=0:00:14.33    \nframe=  113 fps=7.6 q=45.0 size=       1KiB time=00:00:01.86 bitrate=   2.7kbits/s speed=0.125x elapsed=0:00:14.88    \nframe=  116 fps=7.5 q=45.0 size=       1KiB time=00:00:01.93 bitrate=   2.6kbits/s speed=0.125x elapsed=0:00:15.48    \nframe=  121 fps=7.6 q=32.0 size=       1KiB time=00:00:02.01 bitrate=   2.5kbits/s speed=0.126x elapsed=0:00:16.01    \nframe=  126 fps=7.6 q=42.0 size=       1KiB time=00:00:02.10 bitrate=   2.4kbits/s speed=0.127x elapsed=0:00:16.54    \nframe=  131 fps=7.7 q=44.0 size=     768KiB time=00:00:02.18 bitrate=2881.6kbits/s speed=0.128x elapsed=0:00:17.09    \nframe=  135 fps=7.6 q=29.0 size=     768KiB time=00:00:02.25 bitrate=2796.2kbits/s speed=0.127x elapsed=0:00:17.66    \nframe=  139 fps=7.6 q=41.0 size=     768KiB time=00:00:02.31 bitrate=2715.7kbits/s speed=0.127x elapsed=0:00:18.23    \nframe=  144 fps=7.7 q=40.0 size=     768KiB time=00:00:02.40 bitrate=2621.4kbits/s speed=0.128x elapsed=0:00:18.77    \nframe=  148 fps=7.7 q=41.0 size=     768KiB time=00:00:02.46 bitrate=2550.6kbits/s speed=0.128x elapsed=0:00:19.30    \nframe=  152 fps=7.7 q=29.0 size=     768KiB time=00:00:02.53 bitrate=2483.5kbits/s speed=0.128x elapsed=0:00:19.83    \nframe=  157 fps=7.7 q=41.0 size=     768KiB time=00:00:02.61 bitrate=2404.4kbits/s speed=0.129x elapsed=0:00:20.34    \nframe=  161 fps=7.7 q=41.0 size=     768KiB time=00:00:02.68 bitrate=2344.6kbits/s speed=0.128x elapsed=0:00:20.91    \nframe=  165 fps=7.7 q=42.0 size=     768KiB time=00:00:02.75 bitrate=2287.8kbits/s speed=0.128x elapsed=0:00:21.52    \nframe=  169 fps=7.7 q=42.0 size=     768KiB time=00:00:02.81 bitrate=2233.7kbits/s speed=0.128x elapsed=0:00:22.06    \nframe=  175 fps=7.7 q=42.0 size=     768KiB time=00:00:02.90 bitrate=2169.5kbits/s speed=0.128x elapsed=0:00:22.59    \nframe=  179 fps=7.7 q=42.0 size=     768KiB time=00:00:02.98 bitrate=2108.9kbits/s speed=0.129x elapsed=0:00:23.17    \nframe=  184 fps=7.8 q=42.0 size=     768KiB time=00:00:03.06 bitrate=2051.6kbits/s speed=0.129x elapsed=0:00:23.69    \nframe=  189 fps=7.8 q=43.0 size=     768KiB time=00:00:03.15 bitrate=1997.3kbits/s speed=0.13x elapsed=0:00:24.24    \nframe=  193 fps=7.8 q=42.0 size=     768KiB time=00:00:03.21 bitrate=1955.9kbits/s speed=0.13x elapsed=0:00:24.76    \nframe=  197 fps=7.8 q=42.0 size=     768KiB time=00:00:03.28 bitrate=1916.2kbits/s speed=0.13x elapsed=0:00:25.29    \nframe=  202 fps=7.8 q=40.0 size=     768KiB time=00:00:03.35 bitrate=1878.0kbits/s speed=0.13x elapsed=0:00:25.81    \nframe=  206 fps=7.8 q=42.0 size=     768KiB time=00:00:03.41 bitrate=1841.4kbits/s speed=0.129x elapsed=0:00:26.44    \nframe=  209 fps=7.7 q=43.0 size=     768KiB time=00:00:03.48 bitrate=1806.2kbits/s speed=0.129x elapsed=0:00:27.02    \nframe=  213 fps=7.7 q=47.0 size=     768KiB time=00:00:03.55 bitrate=1772.2kbits/s speed=0.129x elapsed=0:00:27.54    \nframe=  217 fps=7.7 q=49.0 size=     768KiB time=00:00:03.61 bitrate=1739.6kbits/s speed=0.129x elapsed=0:00:28.10    \nframe=  221 fps=7.7 q=47.0 size=     768KiB time=00:00:03.68 bitrate=1708.1kbits/s speed=0.128x elapsed=0:00:28.69    \nframe=  225 fps=7.7 q=47.0 size=     768KiB time=00:00:03.75 bitrate=1677.7kbits/s speed=0.128x elapsed=0:00:29.28    \nframe=  228 fps=7.7 q=49.0 size=     768KiB time=00:00:03.80 bitrate=1655.6kbits/s speed=0.128x elapsed=0:00:29.80    \nframe=  232 fps=7.6 q=52.0 size=     768KiB time=00:00:03.86 bitrate=1627.1kbits/s speed=0.127x elapsed=0:00:30.33    \nframe=  236 fps=7.6 q=38.0 size=     768KiB time=00:00:03.93 bitrate=1599.5kbits/s speed=0.127x elapsed=0:00:30.89    \nframe=  240 fps=7.6 q=51.0 size=     768KiB time=00:00:04.00 bitrate=1572.9kbits/s speed=0.127x elapsed=0:00:31.41    \nframe=  244 fps=7.6 q=50.0 size=     768KiB time=00:00:04.06 bitrate=1547.1kbits/s speed=0.127x elapsed=0:00:31.93    \nframe=  247 fps=7.6 q=50.0 size=     768KiB time=00:00:04.11 bitrate=1528.3kbits/s speed=0.127x elapsed=0:00:32.47    \nframe=  252 fps=7.6 q=46.0 size=     768KiB time=00:00:04.18 bitrate=1503.9kbits/s speed=0.127x elapsed=0:00:33.00    \nframe=  255 fps=7.6 q=45.0 size=     768KiB time=00:00:04.25 bitrate=1480.3kbits/s speed=0.127x elapsed=0:00:33.54    \nframe=  260 fps=7.6 q=45.0 size=    1792KiB time=00:00:04.33 bitrate=3387.7kbits/s speed=0.127x elapsed=0:00:34.07    \nframe=  266 fps=7.7 q=44.0 size=    1792KiB time=00:00:04.43 bitrate=3311.3kbits/s speed=0.128x elapsed=0:00:34.62    \nframe=  271 fps=7.7 q=43.0 size=    1792KiB time=00:00:04.51 bitrate=3250.2kbits/s speed=0.128x elapsed=0:00:35.16    \nframe=  275 fps=7.7 q=25.0 size=    1792KiB time=00:00:04.58 bitrate=3202.9kbits/s speed=0.128x elapsed=0:00:35.68    \nframe=  276 fps=7.6 q=41.0 size=    1792KiB time=00:00:04.60 bitrate=3191.3kbits/s speed=0.127x elapsed=0:00:36.22    \nframe=  276 fps=7.5 q=41.0 size=    1792KiB time=00:00:04.60 bitrate=3191.3kbits/s speed=0.125x elapsed=0:00:36.77    \nframe=  276 fps=7.4 q=41.0 size=    1792KiB time=00:00:04.60 bitrate=3191.3kbits/s speed=0.123x elapsed=0:00:37.35    \nframe=  276 fps=7.3 q=41.0 size=    1792KiB time=00:00:04.60 bitrate=3191.3kbits/s speed=0.121x elapsed=0:00:37.90    \n[out#0/webm @ 0000025e64979880] video:2142KiB audio:0KiB subtitle:0KiB other streams:0KiB global headers:0KiB muxing overhead: 0.130118%\nframe=  300 fps=7.9 q=35.0 Lsize=    2145KiB time=00:00:05.00 bitrate=3514.0kbits/s speed=0.131x elapsed=0:00:38.20    \n",
  "seconds": 38.450318813323975,
  "probe_out": {}
}